#!OML:ASF Y:\EmotionMaleHayes\Project 1\Capture day 1\Session 1\Male1.ASF
:FULLY-SPECIFIED
:DEGREES
32
root -28.2759 17.1048 1.21822 51.3533 83.874 51.1649
lowerback 5.26084 1.54607 -5.84264
upperback 0.787244 1.73506 -0.755703
thorax -2.28669 0.920937 2.36925
lowerneck -22.4315 2.29878 2.59865
upperneck 19.3507 2.93412 -2.39871
head 9.92562 1.27803 -0.832081
rclavicle 1.81143e-014 -2.04748e-014
rhumerus -33.2563 8.95313 -92.7967
rradius 28.4931
rwrist 6.27818
rhand -11.0902 -30.1747
rfingers 7.12502
rthumb 14.9336 -59.6164
lclavicle 1.81143e-014 -2.04748e-014
lhumerus -32.4582 -17.5906 97.5091
lradius 25.2997
lwrist -10.3141
lhand -13.8188 -25.6007
lfingers 7.12502
lthumb 12.3039 4.01726
rfemur 10.8522 -5.24359 7.14231
rtibia 2.64306
rfoot -15.9381 -3.37482
rtoes 6.15124
lfemur 12.7755 0.562335 -20.5963
ltibia -2.50106
lfoot -12.032 11.002
ltoes -8.08023
33
root -28.2725 17.1056 1.21838 50.9387 83.9124 50.7126
lowerback 5.18832 1.52863 -5.82837
upperback 0.814337 1.71942 -0.7204
thorax -2.21738 0.910745 2.40124
lowerneck -22.5366 2.31743 2.62622
upperneck 19.3466 2.95798 -2.44478
head 9.94491 1.2842 -0.848582
rclavicle 9.20621e-015 -9.93923e-015
rhumerus -33.2165 9.12034 -92.8441
rradius 28.3873
rwrist 6.29948
rhand -11.1497 -30.1927
rfingers 7.12502
rthumb 14.8762 -59.6386
lclavicle 9.20621e-015 -9.93923e-015
lhumerus -32.3059 -17.3052 97.2673
lradius 25.1303
lwrist -10.7081
lhand -14.7318 -26.1129
lfingers 7.12502
lthumb 11.4234 3.55594
rfemur 10.8104 -5.39016 7.18476
rtibia 2.7271
rfoot -15.9791 -3.2405
rtoes 5.23948
lfemur 12.8014 0.457172 -20.5713
ltibia -2.59213
lfoot -12.1481 11.0134
ltoes -5.98483
34
root -28.2706 17.1072 1.21959 51.5172 83.8529 51.2775
lowerback 5.17824 1.52134 -5.96059
upperback 0.823795 1.70379 -0.732533
thorax -2.204 0.903662 2.46416
lowerneck -22.6252 2.32607 2.62132
upperneck 19.3694 2.96635 -2.43273
head 9.96885 1.28807 -0.841665
rclavicle -9.60378e-015 7.85199e-015
rhumerus -33.1945 9.10061 -92.8097
rradius 28.2706
rwrist 6.21033
rhand -11.1121 -29.922
rfingers 7.12502
rthumb 14.9125 -59.3652
lclavicle -9.60378e-015 7.85199e-015
lhumerus -32.2504 -17.1985 97.1095
lradius 25.1126
lwrist -10.9149
lhand -14.9706 -26.4688
lfingers 7.12502
lthumb 11.1931 3.21263
rfemur 10.806 -5.46958 7.03875
rtibia 2.76559
rfoot -16.0686 -3.12516
rtoes 5.56454
lfemur 12.8052 0.360909 -20.705
ltibia -2.61652
lfoot -12.1856 11.0793
ltoes -4.70237
35
root -28.27 17.1089 1.22081 51.6691 83.7854 51.437
lowerback 5.22355 1.52368 -6.06831
upperback 0.811108 1.69727 -0.725247
thorax -2.24523 0.902664 2.53104
lowerneck -22.6437 2.3232 2.52215
upperneck 19.4002 2.98759 -2.39499
head 9.98151 1.29482 -0.808724
rclavicle -8.83349e-015 1.09332e-014
rhumerus -33.363 9.39154 -92.9455
rradius 28.382
rwrist 6.15994
rhand -11.2506 -30.473
rfingers 7.12502
rthumb 14.7791 -59.9261
lclavicle -8.83349e-015 1.09332e-014
lhumerus -32.1549 -16.8964 96.9336
lradius 25.0081
lwrist -11.2067
lhand -14.6725 -26.893
lfingers 7.12502
lthumb 11.4806 2.77261
rfemur 10.7881 -5.58436 6.8964
rtibia 2.84378
rfoot -16.1005 -2.93152
rtoes 6.17449
lfemur 12.7867 0.465042 -20.7513
ltibia -2.5625
lfoot -12.1321 11.0788
ltoes -6.85913
36
root -28.2688 17.1096 1.22046 51.5641 83.7712 51.2763
lowerback 5.18402 1.52583 -6.06779
upperback 0.79234 1.70205 -0.720589
thorax -2.24311 0.905213 2.53587
lowerneck -22.6896 2.30943 2.44946
upperneck 19.4528 2.99369 -2.39324
head 10.0075 1.29192 -0.794913
rclavicle 5.41688e-015 1.28216e-014
rhumerus -33.4789 9.54738 -93.0104
rradius 28.3979
rwrist 6.2406
rhand -11.3891 -30.5537
rfingers 7.12502
rthumb 14.6456 -60.0165
lclavicle 5.41688e-015 1.28216e-014
lhumerus -32.0916 -16.9268 96.9256
lradius 24.945
lwrist -11.3327
lhand -14.533 -26.4099
lfingers 7.12502
lthumb 11.6152 3.24822
rfemur 10.7154 -5.58075 6.90791
rtibia 2.83534
rfoot -16.0276 -2.92547
rtoes 6.04805
lfemur 12.7328 0.530378 -20.733
ltibia -2.55461
lfoot -12.1561 11.0666
ltoes -9.06989
37
root -28.2677 17.1102 1.22099 51.6147 83.8123 51.2573
lowerback 5.12695 1.46894 -6.11291
upperback 0.779642 1.62828 -0.630623
thorax -2.22159 0.868284 2.66094
lowerneck -22.7008 2.33043 2.31632
upperneck 19.409 3.07526 -2.42902
head 9.99452 1.31497 -0.773348
rclavicle 3.35449e-015 1.94809e-014
rhumerus -33.5384 9.85152 -93.0062
rradius 28.4216
rwrist 6.18103
rhand -11.2966 -30.6491
rfingers 7.12502
rthumb 14.7348 -60.1054
lclavicle 3.35449e-015 1.94809e-014
lhumerus -31.9667 -16.2349 96.7479
lradius 24.7735
lwrist -12.2185
lhand -14.9036 -26.7233
lfingers 7.12502
lthumb 11.2578 2.95458
rfemur 10.669 -5.52467 6.9936
rtibia 2.76617
rfoot -15.9798 -3.05266
rtoes 5.65809
lfemur 12.6689 0.536839 -20.6726
ltibia -2.57209
lfoot -12.1149 11.0369
ltoes -9.85394
38
root -28.2673 17.1103 1.22247 50.922 83.984 50.5254
lowerback 5.11621 1.52996 -5.86387
upperback 0.756934 1.72155 -0.700106
thorax -2.23832 0.913369 2.44276
lowerneck -22.5952 2.26389 2.55132
upperneck 19.2798 2.90842 -2.46052
head 9.92923 1.25292 -0.849021
rclavicle 1.34801e-014 5.66536e-015
rhumerus -33.5927 9.51703 -93.1189
rradius 28.4678
rwrist 6.1377
rhand -11.1568 -30.9316
rfingers 7.12502
rthumb 14.8694 -60.378
lclavicle 1.34801e-014 5.66536e-015
lhumerus -31.8616 -16.4809 96.5192
lradius 24.658
lwrist -11.8712
lhand -14.9543 -26.7513
lfingers 7.12502
lthumb 11.2088 2.92923
rfemur 10.6943 -5.30446 7.29792
rtibia 2.62657
rfoot -16.0756 -3.20247
rtoes 7.10187
lfemur 12.6143 0.507128 -20.4417
ltibia -2.56396
lfoot -12.0025 11.0478
ltoes -8.85647
39
root -28.2673 17.1107 1.22267 49.9038 84.1419 49.4707
lowerback 5.0966 1.50917 -5.67854
upperback 0.767395 1.70589 -0.663954
thorax -2.21095 0.902974 2.3784
lowerneck -22.6471 2.2766 2.58955
upperneck 19.2809 2.91187 -2.46349
head 9.93967 1.25634 -0.855491
rclavicle 1.32068e-014 5.56597e-015
rhumerus -33.5628 9.61391 -93.1939
rradius 28.4517
rwrist 5.95336
rhand -11.2008 -30.9963
rfingers 7.12502
rthumb 14.8271 -60.4459
lclavicle 1.32068e-014 5.56597e-015
lhumerus -31.7303 -16.3436 96.3254
lradius 24.5788
lwrist -11.9666
lhand -13.9443 -26.3275
lfingers 7.12502
lthumb 12.1828 3.29778
rfemur 10.6512 -5.34928 7.55537
rtibia 2.66786
rfoot -16.0751 -3.32996
rtoes 6.19033
lfemur 12.5454 0.44043 -20.22
ltibia -2.50827
lfoot -12.0572 11.08
ltoes -6.36666
40
root -28.2668 17.1124 1.22368 49.0384 84.0906 48.6211
lowerback 5.12166 1.52719 -5.70231
upperback 0.777147 1.72756 -0.645803
thorax -2.21796 0.913995 2.40833
lowerneck -22.7547 2.29339 2.57652
upperneck 19.3676 2.93598 -2.44983
head 9.99016 1.26698 -0.84415
rclavicle 1.74558e-014 2.0773e-014
rhumerus -33.5415 9.73102 -93.2258
rradius 28.4207
rwrist 5.79118
rhand -11.2581 -30.9719
rfingers 7.12502
rthumb 14.7719 -60.4255
lclavicle 1.74558e-014 2.0773e-014
lhumerus -31.5702 -15.7754 96.0499
lradius 24.353
lwrist -12.6888
lhand -14.1708 -26.4401
lfingers 7.12502
lthumb 11.9644 3.19797
rfemur 10.5915 -5.30548 7.59283
rtibia 2.75529
rfoot -16.0441 -3.32803
rtoes 5.63904
lfemur 12.5424 0.506605 -20.1801
ltibia -2.45864
lfoot -12.1405 11.0743
ltoes -5.62472
41
root -28.2652 17.1133 1.22552 48.4428 83.9804 48.0803
lowerback 5.19215 1.56699 -5.79317
upperback 0.775921 1.77067 -0.656073
thorax -2.26473 0.937537 2.44338
lowerneck -22.7785 2.32175 2.57891
upperneck 19.4001 2.96249 -2.39986
head 10.0059 1.28521 -0.822657
rclavicle -1.46728e-014 -7.55382e-015
rhumerus -33.582 9.75276 -93.2622
rradius 28.4319
rwrist 5.79853
rhand -11.2015 -31.0742
rfingers 7.12502
rthumb 14.8264 -60.5237
lclavicle -1.46728e-014 -7.55382e-015
lhumerus -31.4615 -15.3293 95.7948
lradius 24.116
lwrist -13.3163
lhand -14.1788 -26.8367
lfingers 7.12502
lthumb 11.9567 2.80178
rfemur 10.5787 -5.23868 7.53846
rtibia 2.8224
rfoot -16.0458 -3.28775
rtoes 5.37792
lfemur 12.6102 0.564779 -20.217
ltibia -2.44395
lfoot -12.2016 11.0672
ltoes -5.50808
42
root -28.2658 17.1119 1.22723 48.5421 83.9572 48.1757
lowerback 5.23713 1.57362 -5.8242
upperback 0.76927 1.77394 -0.696084
thorax -2.29672 0.940456 2.41785
lowerneck -22.767 2.35505 2.54065
upperneck 19.3506 2.9798 -2.23789
head 9.98309 1.30995 -0.756624
rclavicle -8.33032e-015 3.67752e-014
rhumerus -33.6214 9.68417 -93.3024
rradius 28.4403
rwrist 5.87844
rhand -11.1434 -31.168
rfingers 7.12502
rthumb 14.8823 -60.6135
lclavicle -8.33032e-015 3.67752e-014
lhumerus -31.3787 -15.4857 95.6913
lradius 23.9935
lwrist -13.2274
lhand -14.5542 -26.9763
lfingers 7.12502
lthumb 11.5947 2.68295
rfemur 10.5635 -5.10265 7.54741
rtibia 2.78993
rfoot -16.0291 -3.34726
rtoes 6.29937
lfemur 12.577 0.617141 -20.2055
ltibia -2.37764
lfoot -12.2205 10.9733
ltoes -5.20887
43
root -28.2672 17.1102 1.22831 49.0623 83.948 48.6575
lowerback 5.24993 1.56852 -5.92746
upperback 0.759938 1.7602 -0.693287
thorax -2.31553 0.935212 2.47901
lowerneck -22.6642 2.37869 2.40987
upperneck 19.2087 3.0055 -2.03656
head 9.90884 1.33721 -0.661311
rclavicle 1.70209e-015 8.94531e-016
rhumerus -33.6438 9.66871 -93.2735
rradius 28.4384
rwrist 5.92876
rhand -11.1248 -31.1618
rfingers 7.12502
rthumb 14.9003 -60.6059
lclavicle 1.70209e-015 8.94531e-016
lhumerus -31.3451 -15.8915 95.7548
lradius 23.9767
lwrist -12.7043
lhand -13.9853 -26.7656
lfingers 7.12502
lthumb 12.1433 2.86199
rfemur 10.5263 -5.01005 7.53868
rtibia 2.77272
rfoot -16.0627 -3.37014
rtoes 7.45792
lfemur 12.4837 0.728787 -20.2036
ltibia -2.29434
lfoot -12.1409 10.8637
ltoes -6.39925
44
root -28.2662 17.1091 1.22713 49.2821 84.0088 48.8795
lowerback 5.21771 1.5322 -5.84612
upperback 0.811939 1.72095 -0.722024
thorax -2.23691 0.912191 2.40859
lowerneck -22.6072 2.42096 2.39129
upperneck 19.0674 3.04408 -1.94383
head 9.84723 1.36509 -0.620627
rclavicle 2.18663e-015 -5.06901e-015
rhumerus -33.5555 9.59763 -93.2761
rradius 28.3801
rwrist 6.06176
rhand -11.0994 -30.8616
rfingers 7.12502
rthumb 14.9248 -60.3039
lclavicle 2.18663e-015 -5.06901e-015
lhumerus -31.1998 -15.912 95.5754
lradius 24.0048
lwrist -12.4703
lhand -13.2106 -26.5129
lfingers 7.12502
lthumb 12.8902 3.069
rfemur 10.5199 -5.01016 7.58774
rtibia 2.85114
rfoot -16.1905 -3.35662
rtoes 7.47975
lfemur 12.4049 0.980492 -20.0598
ltibia -2.10898
lfoot -12.1849 10.5457
ltoes -6.87473
45
root -28.2652 17.108 1.22725 48.2957 84.1409 47.9347
lowerback 5.30239 1.52808 -5.73013
upperback 0.822299 1.71721 -0.647582
thorax -2.27224 0.909977 2.41904
lowerneck -22.6279 2.42361 2.38792
upperneck 19.084 3.06312 -2.00215
head 9.8583 1.36643 -0.637534
rclavicle 8.63471e-015 5.06901e-015
rhumerus -33.5725 9.57893 -93.2025
rradius 28.3338
rwrist 6.12903
rhand -11.1376 -30.5194
rfingers 7.12502
rthumb 14.8879 -59.9644
lclavicle 8.63471e-015 5.06901e-015
lhumerus -31.1556 -15.6563 95.4461
lradius 23.9344
lwrist -12.8641
lhand -13.6875 -26.3397
lfingers 7.12502
lthumb 12.4304 3.27066
rfemur 10.5299 -5.01501 7.80089
rtibia 2.96195
rfoot -16.2997 -3.35073
rtoes 6.90143
lfemur 12.2621 1.615 -19.6076
ltibia -1.68055
lfoot -12.1954 9.89974
ltoes -7.27492
46
root -28.2633 17.1057 1.22866 47.3293 84.2261 46.967
lowerback 5.25408 1.52649 -5.58194
upperback 0.874017 1.72904 -0.644829
thorax -2.18844 0.911754 2.3402
lowerneck -22.7876 2.4199 2.43089
upperneck 19.1657 3.04021 -1.99946
head 9.916 1.35769 -0.645582
rclavicle 1.07468e-015 8.64713e-015
rhumerus -33.5038 9.55589 -93.2378
rradius 28.3228
rwrist 6.07435
rhand -11.2223 -30.4805
rfingers 7.12502
rthumb 14.8063 -59.9316
lclavicle 1.07468e-015 8.64713e-015
lhumerus -31.0007 -15.585 95.2393
lradius 23.812
lwrist -13.0737
lhand -15.3371 -26.1357
lfingers 7.12502
lthumb 10.8396 3.5646
rfemur 10.5152 -4.9655 7.97137
rtibia 3.03241
rfoot -16.417 -3.30996
rtoes 7.42418
lfemur 12.0734 2.01925 -19.2954
ltibia -1.2779
lfoot -12.1943 9.5336
ltoes -8.03525
